<svg width="227" height="81" viewBox="0 0 227 81" fill="none" xmlns="http://www.w3.org/2000/svg">
<g id="Logo_PLN logo" clip-path="url(#clip0_102_153)">
<g id="g61869">
<path id="path61871" d="M97.093 60.6337H106.871V48.3153H116.49C124.256 48.3153 129.507 42.519 129.507 34.4937C129.507 26.4659 124.256 20.7803 116.49 20.7803H97.093V60.6337ZM190.23 60.6337H200.006L199.957 37.3121L216.086 60.6337H226.773V20.7803H216.998L217.018 45.0799L200.117 20.7803H190.23V60.6337ZM144.784 60.6337H173.677V52.2738H154.565V20.7803H144.786L144.784 60.6337ZM106.874 39.9554V29.1401H114.648C117.887 29.1401 119.566 31.315 119.566 34.4937C119.566 37.6698 117.887 39.9554 114.48 39.9554H106.874Z" fill="white"/>
<path id="rect61873" d="M81.0541 0.225586H0.226562V80.7741H81.0541V0.225586Z" fill="#F7E82E"/>
<path id="path61875" fill-rule="evenodd" clip-rule="evenodd" d="M16.5212 29.4153C18.6882 28.2236 21.7229 27.2842 24.1533 27.2842C28.7945 27.2842 29.8689 29.4153 32.1495 29.4153C34.4301 29.4153 36.7727 27.2842 40.9903 27.2842C44.8283 27.2842 46.8558 29.4153 50.265 29.4153C53.682 29.4153 52.9717 27.2842 57.7808 27.2842C62.5667 27.2842 64.7569 29.4153 64.7569 29.4153V34.8487C64.7569 34.8487 62.2025 32.5812 58.1863 32.5271C54.2011 32.4808 54.307 34.8487 50.2753 34.8487C46.2411 34.8487 45.9182 32.5271 41.1814 32.5271C36.4472 32.5271 35.7318 34.8487 32.0746 34.8487C28.4071 34.8487 27.7201 32.4319 23.9002 32.4808C20.0803 32.5271 16.5212 34.8487 16.5212 34.8487V29.4153Z" fill="#28A8E0"/>
<path id="path61877" fill-rule="evenodd" clip-rule="evenodd" d="M16.5212 42.0866C18.6882 40.8923 21.7229 39.958 24.1533 39.958C28.7945 39.958 29.8689 42.0866 32.1495 42.0866C34.4301 42.0866 36.7727 39.958 40.9903 39.958C44.8283 39.958 46.8558 42.0866 50.265 42.0866C53.682 42.0866 52.9717 39.958 57.7808 39.958C62.5667 39.958 64.7569 42.0866 64.7569 42.0866V47.5225C64.7569 47.5225 62.2025 45.2395 58.1863 45.1984C54.2011 45.1597 54.307 47.5225 50.2753 47.5225C46.2411 47.5225 45.9182 45.1984 41.1814 45.1984C36.4472 45.1984 35.7318 47.5225 32.0746 47.5225C28.4071 47.5225 27.7201 45.1108 23.9002 45.1598C20.0803 45.1984 16.5212 47.5225 16.5212 47.5225V42.0866Z" fill="#28A8E0"/>
<path id="path61879" fill-rule="evenodd" clip-rule="evenodd" d="M16.5212 54.7474C18.6882 53.5479 21.7229 52.6162 24.1533 52.6162C28.7945 52.6162 29.8689 54.7474 32.1495 54.7474C34.4301 54.7474 36.7727 52.6162 40.9903 52.6162C44.8283 52.6162 46.8558 54.7474 50.265 54.7474C53.682 54.7474 52.9717 52.6162 57.7808 52.6162C62.5667 52.6162 64.7569 54.7474 64.7569 54.7474V60.1988C64.7569 60.1988 62.2025 57.9132 58.1863 57.8643C54.2011 57.8231 54.307 60.1988 50.2753 60.1988C46.2411 60.1988 45.9182 57.8643 41.1814 57.8643C36.4472 57.8643 35.7318 60.1988 32.0746 60.1988C28.4071 60.1988 27.7201 57.7793 23.9002 57.8231C20.0803 57.8643 16.5212 60.1988 16.5212 60.1988V54.7474Z" fill="#28A8E0"/>
<path id="polygon61881" fill-rule="evenodd" clip-rule="evenodd" d="M38.3533 72.3215L44.4719 41.6851L22.7328 51.2134L35.4374 10.9868H45.7865L33.725 38.8744L55.1903 30.2212L38.3533 72.3215Z" fill="#E62A2B"/>
</g>
</g>
<defs>
<clipPath id="clip0_102_153">
<rect width="227" height="81" fill="white"/>
</clipPath>
</defs>
</svg>
